# xmcd
#
# Track frame offsets:
#	150
#	23556
#	48887
#	62353
#	88435
#	108377
#	127661
#	151391
#	172836
#	192454
#	212445
#	241799
#
# Disc length: 3486 seconds
#
# Revision: 1
# Processed by: cddbd v1.5.1PL0 Copyright (c) Steve Scherf et al.
# Submitted via: audiograbber 1.83.01
#
DISCID=8c0d9c0c
DTITLE=Kevin Montgomery - Bootleg
DYEAR=2002
DGENRE=Blues
TTITLE0=Another Long Story
TTITLE1=Red Blooded American Boy
TTITLE2=I Don't Even Know Your Name
TTITLE3=Lookin' Out For #1
TTITLE4=At Our Best
TTITLE5=Tennessee Girl
TTITLE6=I Can't Drive You From My Mind
TTITLE7=Let's Go All The Way
TTITLE8=I Won't Close My Eyes
TTITLE9=I Wish I Were Blind
TTITLE10=Fear Nothing
TTITLE11=Melrose
EXTD=
EXTT0=
EXTT1=
EXTT2=
EXTT3=
EXTT4=
EXTT5=
EXTT6=
EXTT7=
EXTT8=
EXTT9=
EXTT10=
EXTT11=
PLAYORDER=
